# ProBuilder 5.0.6
# https://unity3d.com/unity/features/worldbuilding/probuilder
# 28.01.2023 14:19:01

mtllib ./PolyShape.mtl
o PolyShape

g PolyShape
v 0 50.39 0.1094666
v 5.473038 50.39 6.348724
v 4.706818 50.39 17.07587
v 0.3283844 50.39 28.89761
v -8.647491 50.39 49.36662
v -13.90161 50.39 65.45735
v -15.8719 50.39 76.84126
v -25.72336 50.39 86.14542
v -33.71399 50.39 86.14542
v -43.78436 50.39 81.32915
v -56.15331 50.39 80.67239
v -60.6413 50.39 87.56838
v -59.43723 50.39 99.49959
v -52.21281 50.39 107.5997
v -35.68427 50.39 112.3065
v -18.82732 50.39 115.6998
v -0.9854279 50.39 126.4267
v 3.174072 50.39 138.7958
v 5.253738 50.39 157.404
v 2.298309 50.39 172.6191
v -1.532883 50.39 182.6894
v -2.518036 50.39 190.0233
v -20.68851 50.39 189.3665
v -25.39531 50.39 182.0326
v -30.21158 50.39 165.9419
v -30.9778 50.39 151.4931
v -24.41016 50.39 135.4024
v -32.51024 50.39 122.2671
v -44.76985 50.39 121.063
v -62.83086 50.39 111.54
v -68.74168 50.39 96.32494
v -67.86599 50.39 79.90585
v -59.7659 50.39 69.83546
v -47.5063 50.39 68.85032
v -36.12239 50.39 68.52193
v -31.19667 50.39 61.84483
v -19.15601 50.39 48.70952
v -10.39915 50.39 30.53905
v -12.36951 50.39 24.62802
v -15.76279 50.39 18.38876
v -17.73308 50.39 7.552155
v -13.7925 50.39 2.626434
v -7.33432 50.39 -0.5479279
v -20.68851 0 189.3665
v -1.532883 0 182.6894
v -2.518036 0 190.0233
v -25.39531 0 182.0326
v 2.298309 0 172.6191
v -30.21158 0 165.9419
v -30.9778 0 151.4931
v 5.253738 0 157.404
v 3.174072 0 138.7958
v -24.41016 0 135.4024
v -0.9854279 0 126.4267
v -18.82732 0 115.6998
v -32.51024 0 122.2671
v -35.68427 0 112.3065
v -44.76985 0 121.063
v -52.21281 0 107.5997
v -62.83086 0 111.54
v -59.43723 0 99.49959
v -68.74168 0 96.32494
v -60.6413 0 87.56838
v -67.86599 0 79.90585
v -56.15331 0 80.67239
v -59.7659 0 69.83546
v -47.5063 0 68.85032
v -43.78436 0 81.32915
v -36.12239 0 68.52193
v -33.71399 0 86.14542
v -25.72336 0 86.14542
v -15.8719 0 76.84126
v -31.19667 0 61.84483
v -13.90161 0 65.45735
v -19.15601 0 48.70952
v -8.647491 0 49.36662
v -10.39915 0 30.53905
v 0.3283844 0 28.89761
v -12.36951 0 24.62802
v -15.76279 0 18.38876
v 4.706818 0 17.07587
v -17.73308 0 7.552155
v -13.7925 0 2.626434
v 5.473038 0 6.348724
v -7.33432 0 -0.5479279
v 0 0 0.1094666

vt -7.563428E-14 0.1094666
vt -5.473038 6.348724
vt -4.706818 17.07587
vt -0.3283844 28.89761
vt 8.647491 49.36662
vt 13.90161 65.45735
vt 15.8719 76.84126
vt 25.72336 86.14542
vt 33.71399 86.14542
vt 43.78436 81.32915
vt 56.15331 80.67239
vt 60.6413 87.56838
vt 59.43723 99.49959
vt 52.21281 107.5997
vt 35.68427 112.3065
vt 18.82732 115.6998
vt 0.9854279 126.4267
vt -3.174072 138.7958
vt -5.253738 157.404
vt -2.298309 172.6191
vt 1.532883 182.6894
vt 2.518036 190.0233
vt 20.68851 189.3665
vt 25.39531 182.0326
vt 30.21158 165.9419
vt 30.9778 151.4931
vt 24.41016 135.4024
vt 32.51024 122.2671
vt 44.76985 121.063
vt 62.83086 111.54
vt 68.74168 96.32494
vt 67.86599 79.90585
vt 59.7659 69.83546
vt 47.5063 68.85032
vt 36.12239 68.52193
vt 31.19667 61.84483
vt 19.15601 48.70952
vt 10.39915 30.53905
vt 12.36951 24.62802
vt 15.76279 18.38876
vt 17.73308 7.552155
vt 13.7925 2.626434
vt 7.33432 -0.5479279
vt -20.68851 189.3665
vt -1.532883 182.6894
vt -2.518036 190.0233
vt -25.39531 182.0326
vt 2.298309 172.6191
vt -30.21158 165.9419
vt -30.9778 151.4931
vt 5.253738 157.404
vt 3.174072 138.7958
vt -24.41016 135.4024
vt -0.9854279 126.4267
vt -18.82732 115.6998
vt -32.51024 122.2671
vt -35.68427 112.3065
vt -44.76985 121.063
vt -52.21281 107.5997
vt -62.83086 111.54
vt -59.43723 99.49959
vt -68.74168 96.32494
vt -60.6413 87.56838
vt -67.86599 79.90585
vt -56.15331 80.67239
vt -59.7659 69.83546
vt -47.5063 68.85032
vt -43.78436 81.32915
vt -36.12239 68.52193
vt -33.71399 86.14542
vt -25.72336 86.14542
vt -15.8719 76.84126
vt -31.19667 61.84483
vt -13.90161 65.45735
vt -19.15601 48.70952
vt -8.647491 49.36662
vt -10.39915 30.53905
vt 0.3283844 28.89761
vt -12.36951 24.62802
vt -15.76279 18.38876
vt 4.706818 17.07587
vt -17.73308 7.552155
vt -13.7925 2.626434
vt 5.473038 6.348724
vt -7.33432 -0.5479279
vt -181.2672 0
vt -188.6669 0
vt -181.2672 50.39
vt -188.6669 50.39
vt 4.347486 0
vt -13.83485 0
vt 4.347486 50.39
vt -13.83485 50.39
vt 148.194 0
vt 139.4796 0
vt 148.194 50.39
vt 139.4796 50.39
vt -160.5204 0
vt -171.2949 0
vt -160.5204 50.39
vt -171.2949 50.39
vt 167.1061 0
vt 150.3101 0
vt 167.1061 50.39
vt 150.3101 50.39
vt 164.1092 0
vt 149.6401 0
vt 164.1092 50.39
vt 149.6401 50.39
vt -153.5142 0
vt -169.0136 0
vt -153.5142 50.39
vt -169.0136 50.39
vt -138.2896 0
vt -157.0137 0
vt -138.2896 50.39
vt -157.0137 50.39
vt 151.966 0
vt 134.5865 0
vt 151.966 50.39
vt 134.5865 50.39
vt -119.5184 0
vt -132.5681 0
vt -119.5184 50.39
vt -132.5681 50.39
vt -43.48064 0
vt -64.29891 0
vt -43.48064 50.39
vt -64.29891 50.39
vt 102.4379 0
vt 87.00594 0
vt 102.4379 50.39
vt 87.00594 50.39
vt 12.81997 0
vt -4.375123 0
vt 12.81997 50.39
vt -4.375123 50.39
vt -20.40383 0
vt -32.72242 0
vt -20.40383 50.39
vt -32.72242 50.39
vt 20.74699 0
vt 3.561332 0
vt 20.74699 50.39
vt 3.561332 50.39
vt 16.86291 0
vt -3.554945 0
vt 16.86291 50.39
vt -3.554945 50.39
vt -34.69374 0
vt -45.54748 0
vt -34.69374 50.39
vt -45.54748 50.39
vt 81.21764 0
vt 64.8948 0
vt 81.21764 50.39
vt 64.8948 50.39
vt -81.03699 0
vt -93.02879 0
vt -81.03699 50.39
vt -93.02879 50.39
vt 99.84927 0
vt 83.40683 0
vt 99.84927 50.39
vt 83.40683 50.39
vt -98.24392 0
vt -106.4717 0
vt -98.24392 50.39
vt -106.4717 50.39
vt 104.7993 0
vt 91.87553 0
vt 104.7993 50.39
vt 91.87553 50.39
vt 65.16761 0
vt 52.86849 0
vt 65.16761 50.39
vt 52.86849 50.39
vt -39.41051 0
vt -51.79688 0
vt -39.41051 50.39
vt -51.79688 50.39
vt 49.47181 0
vt 38.08316 0
vt 49.47181 50.39
vt 38.08316 50.39
vt 6.753396 0
vt -4.409439 0
vt 6.753396 50.39
vt -4.409439 50.39
vt -25.72336 0
vt -33.71399 0
vt -25.72336 50.39
vt -33.71399 50.39
vt -64.30012 0
vt -77.85071 0
vt -64.30012 50.39
vt -77.85071 50.39
vt 76.58529 0
vt 68.28791 0
vt 76.58529 50.39
vt 68.28791 50.39
vt -66.86924 0
vt -78.42239 0
vt -66.86924 50.39
vt -78.42239 50.39
vt 66.66956 0
vt 48.85064 0
vt 66.66956 50.39
vt 48.85064 50.39
vt -49.61238 0
vt -66.5392 0
vt -49.61238 50.39
vt -66.5392 50.39
vt 52.19613 0
vt 32.02564 0
vt 52.19613 50.39
vt 32.02564 50.39
vt -26.33305 0
vt -48.6836 0
vt -26.33305 50.39
vt -48.6836 50.39
vt 25.68335 0
vt 19.45258 0
vt 25.68335 50.39
vt 19.45258 50.39
vt 15.72552 0
vt 8.623218 0
vt 15.72552 50.39
vt 8.623218 50.39
vt -14.37812 0
vt -26.98464 0
vt -14.37812 50.39
vt -26.98464 50.39
vt 16.97502 0
vt 10.66701 0
vt 16.97502 50.39
vt 10.66701 50.39
vt 15.27242 0
vt 4.258151 0
vt 15.27242 50.39
vt 4.258151 50.39
vt 7.353951 0
vt -0.009772597 0
vt 7.353951 50.39
vt -0.009772597 50.39
vt -0.08229245 0
vt -8.38184 0
vt -0.08229245 50.39
vt -8.38184 50.39
vt 13.53662 0
vt 6.340472 0
vt 13.53662 50.39
vt 6.340472 50.39
vt -5.942655 0
vt -16.69713 0
vt -5.942655 50.39
vt -16.69713 50.39

vn 0 1 0
vn 0 -1 0
vn 0.9910982 0 0.1331333
vn -0.03612125 0 0.9993474
vn -0.8415866 0 0.5401222
vn 0.9346457 0 0.3555805
vn -0.9580054 0 0.28675
vn -0.9985969 0 0.05295558
vn 0.9816522 0 0.1906801
vn 0.9938127 0 -0.1110689
vn -0.9258477 0 -0.3778969
vn 0.9478412 0 -0.3187428
vn 0.5152665 0 -0.85703
vn -0.8511709 0 0.5248887
vn 0.1973401 0 -0.9803351
vn -0.09774292 0 0.9952117
vn 0.27388 0 -0.9617639
vn -0.4664093 0 0.884569
vn 0.7462952 0 -0.6656151
vn -0.9321316 0 0.3621198
vn 0.9949464 0 -0.1004078
vn -0.9985808 0 -0.05325773
vn 0.8381326 0 0.5454667
vn -0.7792134 0 -0.6267588
vn -0.08009889 0 -0.9967869
vn -0.0530223 0 0.9985933
vn -0.02883437 0 -0.9995843
vn -0.4314558 0 0.9021341
vn 0 0 1
vn 0.6866239 0 0.7270129
vn -0.8047248 0 -0.5936481
vn 0.9853505 0 0.1705415
vn -0.7371553 0 -0.6757234
vn 0.9506054 0 0.310402
vn -0.9008445 0 -0.4341418
vn 0.9158172 0 0.4015955
vn -0.9486828 0 0.3162292
vn -0.878484 0 0.4777719
vn 0.9377486 0 0.347315
vn -0.7808684 0 -0.6246957
vn -0.9838699 0 0.1788853
vn 0.08927473 0 -0.996007
vn 0.7517589 0 -0.6594381
vn -0.4411194 0 -0.8974484
vn 0.9974588 0 0.07124665

usemtl Lit
f 22/22/1 21/21/1 23/23/1
f 23/23/1 21/21/1 24/24/1
f 21/21/1 20/20/1 24/24/1
f 24/24/1 20/20/1 25/25/1
f 25/25/1 20/20/1 26/26/1
f 20/20/1 19/19/1 26/26/1
f 18/18/1 26/26/1 19/19/1
f 27/27/1 26/26/1 18/18/1
f 18/18/1 17/17/1 27/27/1
f 17/17/1 16/16/1 27/27/1
f 27/27/1 16/16/1 28/28/1
f 28/28/1 16/16/1 15/15/1
f 28/28/1 15/15/1 29/29/1
f 29/29/1 15/15/1 14/14/1
f 29/29/1 14/14/1 30/30/1
f 14/14/1 13/13/1 30/30/1
f 30/30/1 13/13/1 31/31/1
f 13/13/1 12/12/1 31/31/1
f 12/12/1 32/32/1 31/31/1
f 12/12/1 11/11/1 32/32/1
f 11/11/1 33/33/1 32/32/1
f 11/11/1 34/34/1 33/33/1
f 10/10/1 34/34/1 11/11/1
f 10/10/1 35/35/1 34/34/1
f 10/10/1 9/9/1 35/35/1
f 9/9/1 8/8/1 35/35/1
f 8/8/1 7/7/1 35/35/1
f 7/7/1 36/36/1 35/35/1
f 7/7/1 6/6/1 36/36/1
f 6/6/1 37/37/1 36/36/1
f 6/6/1 5/5/1 37/37/1
f 5/5/1 38/38/1 37/37/1
f 5/5/1 4/4/1 38/38/1
f 38/38/1 4/4/1 39/39/1
f 39/39/1 4/4/1 40/40/1
f 40/40/1 4/4/1 3/3/1
f 40/40/1 42/42/1 41/41/1
f 1/1/1 43/43/1 2/2/1
f 42/42/1 2/2/1 43/43/1
f 42/42/1 40/40/1 2/2/1
f 40/40/1 3/3/1 2/2/1
f 84/84/2 81/81/2 80/80/2
f 84/84/2 80/80/2 83/83/2
f 85/85/2 84/84/2 83/83/2
f 84/84/2 85/85/2 86/1/2
f 82/82/2 83/83/2 80/80/2
f 81/81/2 78/78/2 80/80/2
f 80/80/2 78/78/2 79/79/2
f 79/79/2 78/78/2 77/77/2
f 77/77/2 78/78/2 76/76/2
f 75/75/2 77/77/2 76/76/2
f 75/75/2 76/76/2 74/74/2
f 73/73/2 75/75/2 74/74/2
f 73/73/2 74/74/2 72/72/2
f 69/69/2 73/73/2 72/72/2
f 69/69/2 72/72/2 71/71/2
f 69/69/2 71/71/2 70/70/2
f 69/69/2 70/70/2 68/68/2
f 67/67/2 69/69/2 68/68/2
f 65/65/2 67/67/2 68/68/2
f 66/66/2 67/67/2 65/65/2
f 64/64/2 66/66/2 65/65/2
f 64/64/2 65/65/2 63/63/2
f 62/62/2 64/64/2 63/63/2
f 62/62/2 63/63/2 61/61/2
f 62/62/2 61/61/2 60/60/2
f 60/60/2 61/61/2 59/59/2
f 60/60/2 59/59/2 58/58/2
f 59/59/2 57/57/2 58/58/2
f 58/58/2 57/57/2 56/56/2
f 57/57/2 55/55/2 56/56/2
f 56/56/2 55/55/2 53/53/2
f 53/53/2 55/55/2 54/54/2
f 53/53/2 54/54/2 52/52/2
f 52/52/2 50/50/2 53/53/2
f 51/51/2 50/50/2 52/52/2
f 50/50/2 51/51/2 48/48/2
f 50/50/2 48/48/2 49/49/2
f 49/49/2 48/48/2 47/47/2
f 47/47/2 48/48/2 45/45/2
f 47/47/2 45/45/2 44/44/2
f 44/44/2 45/45/2 46/46/2
f 22/89/3 46/87/3 45/86/3
f 45/86/3 21/88/3 22/89/3
f 23/93/4 44/91/4 46/90/4
f 46/90/4 22/92/4 23/93/4
f 24/97/5 47/95/5 44/94/5
f 44/94/5 23/96/5 24/97/5
f 21/101/6 45/99/6 48/98/6
f 48/98/6 20/100/6 21/101/6
f 25/105/7 49/103/7 47/102/7
f 47/102/7 24/104/7 25/105/7
f 26/109/8 50/107/8 49/106/8
f 49/106/8 25/108/8 26/109/8
f 20/113/9 48/111/9 51/110/9
f 51/110/9 19/112/9 20/113/9
f 19/117/10 51/115/10 52/114/10
f 52/114/10 18/116/10 19/117/10
f 27/121/11 53/119/11 50/118/11
f 50/118/11 26/120/11 27/121/11
f 18/125/12 52/123/12 54/122/12
f 54/122/12 17/124/12 18/125/12
f 17/129/13 54/127/13 55/126/13
f 55/126/13 16/128/13 17/129/13
f 28/133/14 56/131/14 53/130/14
f 53/130/14 27/132/14 28/133/14
f 16/137/15 55/135/15 57/134/15
f 57/134/15 15/136/15 16/137/15
f 29/141/16 58/139/16 56/138/16
f 56/138/16 28/140/16 29/141/16
f 15/145/17 57/143/17 59/142/17
f 59/142/17 14/144/17 15/145/17
f 30/149/18 60/147/18 58/146/18
f 58/146/18 29/148/18 30/149/18
f 14/153/19 59/151/19 61/150/19
f 61/150/19 13/152/19 14/153/19
f 31/157/20 62/155/20 60/154/20
f 60/154/20 30/156/20 31/157/20
f 13/161/21 61/159/21 63/158/21
f 63/158/21 12/160/21 13/161/21
f 32/165/22 64/163/22 62/162/22
f 62/162/22 31/164/22 32/165/22
f 12/169/23 63/167/23 65/166/23
f 65/166/23 11/168/23 12/169/23
f 33/173/24 66/171/24 64/170/24
f 64/170/24 32/172/24 33/173/24
f 34/177/25 67/175/25 66/174/25
f 66/174/25 33/176/25 34/177/25
f 11/181/26 65/179/26 68/178/26
f 68/178/26 10/180/26 11/181/26
f 35/185/27 69/183/27 67/182/27
f 67/182/27 34/184/27 35/185/27
f 10/189/28 68/187/28 70/186/28
f 70/186/28 9/188/28 10/189/28
f 9/193/29 70/191/29 71/190/29
f 71/190/29 8/192/29 9/193/29
f 8/197/30 71/195/30 72/194/30
f 72/194/30 7/196/30 8/197/30
f 36/201/31 73/199/31 69/198/31
f 69/198/31 35/200/31 36/201/31
f 7/205/32 72/203/32 74/202/32
f 74/202/32 6/204/32 7/205/32
f 37/209/33 75/207/33 73/206/33
f 73/206/33 36/208/33 37/209/33
f 6/213/34 74/211/34 76/210/34
f 76/210/34 5/212/34 6/213/34
f 38/217/35 77/215/35 75/214/35
f 75/214/35 37/216/35 38/217/35
f 5/221/36 76/219/36 78/218/36
f 78/218/36 4/220/36 5/221/36
f 39/225/37 79/223/37 77/222/37
f 77/222/37 38/224/37 39/225/37
f 40/229/38 80/227/38 79/226/38
f 79/226/38 39/228/38 40/229/38
f 4/233/39 78/231/39 81/230/39
f 81/230/39 3/232/39 4/233/39
f 42/237/40 83/235/40 82/234/40
f 82/234/40 41/236/40 42/237/40
f 41/241/41 82/239/41 80/238/41
f 80/238/41 40/240/41 41/241/41
f 1/245/42 86/243/42 85/242/42
f 85/242/42 43/244/42 1/245/42
f 2/249/43 84/247/43 86/246/43
f 86/246/43 1/248/43 2/249/43
f 43/253/44 85/251/44 83/250/44
f 83/250/44 42/252/44 43/253/44
f 3/257/45 81/255/45 84/254/45
f 84/254/45 2/256/45 3/257/45

